<svg width="261" height="258" viewBox="0 0 261 258" fill="none" xmlns="http://www.w3.org/2000/svg">
<path d="M93.5837 248.313L107.957 223.292L111.989 224.358L97.6156 249.379L93.5837 248.313Z" fill="#FC7E0F"/>
<path d="M81.6681 216.957L68.6329 236.236L55.6418 227.453L57.914 224.092L66.8289 230.119L69.935 225.525L61.6884 219.95L63.9607 216.589L72.2072 222.165L75.3197 217.561L66.3671 211.508L68.6393 208.148L81.6681 216.957Z" fill="#FC7E0F"/>
<path d="M41.6434 214.599L44.528 205.846L44.4084 205.709L35.3325 207.377L31.6761 203.192L45.1118 200.884L49.0962 187.759L52.8199 192.02L49.979 200.841L50.0986 200.978L59.2204 199.345L62.9292 203.589L49.3739 205.761L45.3148 218.8L41.6434 214.599Z" fill="#FC7E0F"/>
<path d="M45.3294 181.625L24.4263 191.856L20.3897 183.609C19.6137 182.023 19.2554 180.524 19.3148 179.112C19.3674 177.703 19.7847 176.445 20.5665 175.337C21.3383 174.225 22.4182 173.33 23.8063 172.65C25.1944 171.971 26.5657 171.671 27.9203 171.75C29.2749 171.829 30.5262 172.292 31.6744 173.139C32.8193 173.978 33.7847 175.201 34.5707 176.807L37.1434 182.063L33.6017 183.797L31.3787 179.255C30.9624 178.404 30.473 177.775 29.9107 177.367C29.3382 176.956 28.7233 176.742 28.0662 176.726C27.3989 176.707 26.7216 176.866 26.0344 177.202C25.3403 177.542 24.803 177.978 24.4224 178.51C24.0317 179.039 23.83 179.652 23.8173 180.35C23.7978 181.051 23.9979 181.83 24.4175 182.687L25.8763 185.668L43.1663 177.205L45.3294 181.625Z" fill="#FC7E0F"/>
<path d="M35.305 158.605L12.5517 163.495L11.518 158.684L30.305 154.647L28.2088 144.892L32.1751 144.04L35.305 158.605Z" fill="#FC7E0F"/>
<path d="M20.6476 113.899C23.1815 114.041 25.3102 114.643 27.0337 115.703C28.7575 116.756 30.0421 118.134 30.8872 119.835C31.7253 121.529 32.0866 123.401 31.9714 125.451C31.8552 127.516 31.282 129.342 30.2518 130.931C29.2216 132.52 27.7909 133.74 25.9598 134.593C24.1287 135.447 21.95 135.802 19.4237 135.66C16.8898 135.517 14.7609 134.92 13.0371 133.867C11.3132 132.814 10.0322 131.44 9.19417 129.747C8.34858 128.052 7.98385 126.173 8.09999 124.108C8.21528 122.058 8.78804 120.239 9.81827 118.65C10.8414 117.054 12.2685 115.829 14.0996 114.976C15.9311 114.115 18.1138 113.756 20.6476 113.899ZM20.3675 118.88C18.7262 118.787 17.3282 118.955 16.1735 119.384C15.0193 119.804 14.1261 120.441 13.4939 121.293C12.8617 122.145 12.5122 123.165 12.4454 124.352C12.3786 125.54 12.6115 126.593 13.1442 127.51C13.6768 128.428 14.4928 129.164 15.5922 129.719C16.6919 130.267 18.0625 130.587 19.7038 130.679C21.3452 130.771 22.743 130.607 23.8972 130.187C25.0519 129.758 25.9453 129.118 26.5775 128.266C27.2097 127.414 27.5592 126.394 27.6259 125.206C27.6927 124.019 27.4598 122.966 26.9272 122.048C26.3945 121.131 25.5783 120.398 24.4786 119.851C23.3792 119.296 22.0089 118.972 20.3675 118.88Z" fill="#FC7E0F"/>
<path d="M34.2096 106.088L12.2213 98.4638L15.2294 89.7887C15.8053 88.1281 16.5937 86.8139 17.5949 85.8461C18.5913 84.8686 19.7367 84.2594 21.0309 84.0187C22.3205 83.7682 23.6918 83.895 25.1448 84.3988C26.605 84.9051 27.7519 85.6556 28.5857 86.6504C29.4123 87.6426 29.8975 88.8332 30.0413 90.2221C30.1876 91.6039 29.9679 93.1393 29.3821 94.8286L27.368 100.637L23.6317 99.3414L25.3852 94.2845C25.693 93.397 25.8269 92.6175 25.7871 91.9462C25.7473 91.2749 25.5336 90.7117 25.1462 90.2566C24.7612 89.7944 24.2073 89.4379 23.4844 89.1873C22.7543 88.9341 22.0878 88.8674 21.485 88.9871C20.8847 89.0997 20.3527 89.4083 19.8891 89.9131C19.4207 90.4082 19.0314 91.1031 18.7212 91.9978L17.6341 95.1328L35.8216 101.439L34.2096 106.088ZM28.3208 90.7441L40.2222 88.749L38.4426 93.881L26.5822 95.758L28.3208 90.7441Z" fill="#FC7E0F"/>
<path d="M43.4432 82.751L24.0041 69.955L32.6264 56.8564L36.015 59.0869L30.098 68.0756L34.73 71.1247L40.2033 62.8099L43.5919 65.0404L38.1186 73.3552L42.7601 76.4105L48.702 67.3839L52.0906 69.6144L43.4432 82.751Z" fill="#FC7E0F"/>
<path d="M79.405 46.0416C78.7527 46.4118 78.0618 46.4991 77.3323 46.3034C76.6056 46.0973 76.0571 45.6682 75.6869 45.0159C75.3204 44.3703 75.2369 43.6859 75.4364 42.963C75.6424 42.2363 76.0715 41.6878 76.7238 41.3176C77.3563 40.9586 78.0406 40.8751 78.7767 41.0671C79.5129 41.259 80.0642 41.6779 80.4306 42.3235C80.6774 42.7584 80.7917 43.2206 80.7733 43.7101C80.7579 44.1892 80.6339 44.6385 80.4015 45.0579C80.1654 45.4706 79.8332 45.7985 79.405 46.0416Z" fill="#FC7E0F"/>
<path d="M125.23 19.5356C125.587 22.0482 125.415 24.2535 124.713 26.1515C124.018 28.0484 122.92 29.5782 121.417 30.7407C119.92 31.8946 118.156 32.6161 116.123 32.9051C114.076 33.1962 112.172 32.9925 110.412 32.2938C108.653 31.5952 107.175 30.4318 105.979 28.8036C104.783 27.1754 104.008 25.1087 103.651 22.6036C103.294 20.091 103.463 17.8862 104.157 15.9893C104.852 14.0923 105.947 12.5669 107.443 11.4129C108.939 10.2515 110.71 9.5252 112.758 9.23407C114.79 8.94508 116.687 9.1499 118.446 9.84853C120.213 10.5386 121.694 11.6977 122.889 13.3259C124.092 14.9531 124.873 17.023 125.23 19.5356ZM120.291 20.2378C120.059 18.6102 119.621 17.2723 118.974 16.2241C118.335 15.1748 117.536 14.4238 116.576 13.971C115.617 13.5183 114.548 13.3756 113.37 13.543C112.193 13.7104 111.206 14.1453 110.411 14.8476C109.616 15.5499 109.054 16.4945 108.725 17.6813C108.404 18.8671 108.359 20.2738 108.59 21.9014C108.822 23.529 109.257 24.8674 109.896 25.9167C110.542 26.9649 111.345 27.7154 112.305 28.1682C113.265 28.6209 114.333 28.7636 115.511 28.5962C116.688 28.4287 117.675 27.9939 118.47 27.2916C119.266 26.5893 119.824 25.6452 120.145 24.4594C120.474 23.2726 120.522 21.8654 120.291 20.2378Z" fill="#FC7E0F"/>
<path d="M153.225 10.3151L158.089 11.0551L155.816 25.9968C155.561 27.6745 154.937 29.0815 153.944 30.2178C152.959 31.3553 151.697 32.1673 150.16 32.6537C148.623 33.1326 146.904 33.2273 145.001 32.9379C143.092 32.6473 141.474 32.045 140.15 31.1308C138.826 30.2092 137.864 29.0589 137.261 27.6798C136.659 26.3008 136.485 24.7725 136.74 23.0948L139.013 8.15307L143.878 8.89311L141.668 23.4192C141.535 24.2954 141.607 25.1034 141.885 25.8431C142.171 26.5839 142.636 27.2026 143.281 27.6991C143.926 28.1957 144.716 28.5152 145.653 28.6576C146.596 28.8012 147.446 28.7312 148.202 28.4477C148.965 28.1654 149.59 27.7125 150.075 27.089C150.568 26.4667 150.882 25.7174 151.015 24.8411L153.225 10.3151Z" fill="#FC7E0F"/>
<path d="M162.998 36.6424L172.463 15.3813L180.851 19.1154C182.457 19.8302 183.699 20.7275 184.579 21.8072C185.468 22.8831 185.978 24.0761 186.108 25.3861C186.248 26.6923 186.005 28.0478 185.379 29.4528C184.751 30.8647 183.906 31.9437 182.844 32.69C181.785 33.4293 180.557 33.8116 179.161 33.8369C177.772 33.8653 176.261 33.516 174.627 32.7888L169.011 30.2886L170.619 26.6759L175.509 28.8526C176.367 29.2346 177.132 29.4343 177.805 29.4517C178.477 29.469 179.056 29.304 179.543 28.9566C180.036 28.6123 180.438 28.0906 180.749 27.3916C181.064 26.6857 181.187 26.0273 181.119 25.4165C181.057 24.8088 180.795 24.2525 180.332 23.7476C179.878 23.2389 179.219 22.792 178.354 22.4069L175.322 21.0574L167.493 38.6435L162.998 36.6424ZM178.787 32.0783L179.764 44.1061L174.802 41.8971L173.939 29.9201L178.787 32.0783Z" fill="#FC7E0F"/>
<path d="M205.833 66.7283C205.364 66.1426 205.169 65.4741 205.247 64.7228C205.336 63.9727 205.673 63.3634 206.259 62.8949C206.838 62.4312 207.501 62.2407 208.246 62.3236C208.996 62.4123 209.606 62.7496 210.074 63.3352C210.529 63.9032 210.719 64.5657 210.646 65.3229C210.572 66.0801 210.246 66.6906 209.666 67.1544C209.275 67.4667 208.837 67.6524 208.351 67.7116C207.875 67.7719 207.412 67.7204 206.961 67.5571C206.516 67.3891 206.14 67.1128 205.833 66.7283Z" fill="#FC7E0F"/>
<path d="M221.609 90.9553L243.67 83.5452L246.594 92.2492C247.154 93.9153 247.333 95.4373 247.133 96.8153C246.942 98.198 246.408 99.3803 245.531 100.362C244.664 101.349 243.501 102.087 242.043 102.577C240.578 103.069 239.212 103.176 237.944 102.899C236.683 102.619 235.571 101.973 234.608 100.962C233.647 99.9582 232.883 98.6088 232.313 96.9139L230.356 91.0861L234.105 89.827L235.809 94.9007C236.108 95.7912 236.478 96.4899 236.92 96.9968C237.362 97.5037 237.876 97.8187 238.461 97.9419C239.048 98.0724 239.704 98.0158 240.429 97.7721C241.162 97.5261 241.73 97.1714 242.134 96.7081C242.54 96.252 242.772 95.6825 242.831 94.9996C242.899 94.3215 242.782 93.5336 242.48 92.6359L241.424 89.4904L223.176 95.6196L221.609 90.9553ZM235.65 99.4972L227.452 108.352L225.723 103.203L233.961 94.4666L235.65 99.4972Z" fill="#FC7E0F"/>
<path d="M228.574 115.067L251.78 113.307L252.965 128.944L248.92 129.251L248.107 118.52L242.577 118.94L243.329 128.866L239.284 129.172L238.532 119.246L232.991 119.666L233.808 130.442L229.763 130.749L228.574 115.067Z" fill="#FC7E0F"/>
<path d="M243.605 154.446C244.524 154.513 245.292 154.252 245.911 153.66C246.529 153.068 246.94 152.19 247.143 151.025C247.281 150.234 247.286 149.547 247.157 148.963C247.035 148.38 246.806 147.91 246.469 147.551C246.13 147.2 245.715 146.981 245.222 146.895C244.814 146.809 244.441 146.832 244.102 146.965C243.763 147.106 243.451 147.325 243.169 147.621C242.894 147.919 242.636 148.274 242.395 148.686C242.161 149.099 241.945 149.546 241.746 150.026L240.894 152C240.496 152.961 240.037 153.827 239.518 154.598C238.999 155.368 238.414 156.012 237.762 156.529C237.111 157.046 236.386 157.408 235.589 157.615C234.79 157.829 233.912 157.857 232.956 157.698C231.554 157.446 230.4 156.875 229.494 155.987C228.594 155.107 227.976 153.953 227.641 152.526C227.311 151.107 227.309 149.465 227.635 147.599C227.958 145.748 228.523 144.186 229.329 142.912C230.135 141.645 231.16 140.724 232.407 140.149C233.659 139.583 235.113 139.426 236.769 139.676L235.95 144.366C235.173 144.285 234.492 144.393 233.91 144.691C233.333 144.998 232.857 145.457 232.481 146.068C232.112 146.688 231.854 147.416 231.708 148.252C231.565 149.073 231.56 149.807 231.693 150.453C231.826 151.106 232.075 151.638 232.442 152.048C232.809 152.458 233.268 152.711 233.82 152.808C234.335 152.898 234.795 152.82 235.199 152.575C235.602 152.338 235.977 151.95 236.325 151.411C236.672 150.879 237.018 150.213 237.366 149.412L238.428 147.025C239.236 145.174 240.237 143.776 241.432 142.831C242.628 141.886 244.072 141.565 245.764 141.868C247.154 142.103 248.302 142.684 249.209 143.611C250.115 144.546 250.745 145.721 251.098 147.136C251.451 148.551 251.481 150.094 251.19 151.766C250.893 153.467 250.343 154.902 249.539 156.069C248.734 157.244 247.752 158.095 246.591 158.623C245.43 159.151 244.164 159.307 242.795 159.091L243.605 154.446Z" fill="#FC7E0F"/>
<path d="M224.073 163.675L245.312 173.188L238.902 187.5L235.2 185.841L239.599 176.02L234.538 173.753L230.469 182.838L226.766 181.18L230.835 172.095L225.764 169.824L221.346 179.687L217.644 178.028L224.073 163.675Z" fill="#FC7E0F"/>
<path d="M210.962 188.422L214.294 184.335L227.254 205.269L223.247 210.183L200.14 201.693L203.472 197.607L221.071 204.436L221.186 204.295L210.962 188.422ZM218.26 193.947L210.389 203.599L207.413 201.172L215.283 191.52L218.26 193.947Z" fill="#FC7E0F"/>
<path d="M186.552 230.379L190.662 227.571C191.1 228.052 191.576 228.419 192.09 228.674C192.608 228.935 193.148 229.089 193.712 229.135C194.276 229.181 194.849 229.12 195.431 228.951C196.007 228.787 196.57 228.517 197.12 228.141C198.115 227.461 198.813 226.622 199.213 225.624C199.618 224.632 199.703 223.528 199.468 222.312C199.238 221.102 198.668 219.831 197.758 218.498C196.822 217.128 195.832 216.116 194.789 215.462C193.739 214.812 192.683 214.502 191.62 214.531C190.557 214.559 189.541 214.905 188.571 215.568C188.027 215.939 187.573 216.355 187.208 216.816C186.837 217.28 186.564 217.774 186.39 218.297C186.219 218.826 186.152 219.372 186.188 219.935C186.217 220.502 186.36 221.074 186.617 221.651L182.494 224.44C181.998 223.485 181.683 222.453 181.548 221.343C181.412 220.244 181.48 219.128 181.753 217.997C182.024 216.876 182.522 215.792 183.248 214.746C183.971 213.71 184.949 212.771 186.182 211.929C187.896 210.758 189.693 210.099 191.574 209.951C193.449 209.808 195.279 210.204 197.066 211.14C198.846 212.08 200.449 213.595 201.877 215.684C203.308 217.78 204.132 219.832 204.349 221.84C204.565 223.848 204.26 225.699 203.435 227.391C202.614 229.09 201.358 230.517 199.67 231.67C198.556 232.431 197.417 232.98 196.253 233.317C195.082 233.658 193.922 233.78 192.774 233.684C191.63 233.594 190.532 233.276 189.479 232.729C188.42 232.186 187.444 231.403 186.552 230.379Z" fill="#FC7E0F"/>
<path d="M170.37 221.627L177.515 243.775L172.832 245.286L169.884 236.148L160.378 239.214L163.326 248.353L158.654 249.86L151.509 227.711L156.181 226.204L159.133 235.353L168.639 232.287L165.687 223.137L170.37 221.627Z" fill="#FC7E0F"/>
</svg>
